<?xml version="1.0" encoding="UTF-8"?>
<!DOCTYPE svg PUBLIC "-//W3C//DTD SVG 1.1//EN" "http://www.w3.org/Graphics/SVG/1.1/DTD/svg11.dtd">
<!-- Creator: CorelDRAW X5 -->
<svg xmlns="http://www.w3.org/2000/svg" xml:space="preserve" width="2048px" height="2048px" style="shape-rendering:geometricPrecision; text-rendering:geometricPrecision; image-rendering:optimizeQuality; fill-rule:evenodd; clip-rule:evenodd"
viewBox="0 0 2048 2048"
 xmlns:xlink="http://www.w3.org/1999/xlink">
 <defs>
  <style type="text/css">
   <![CDATA[
    .fil0 {fill:#FF9800}
    .fil1 {fill:#FFFFFE;fill-rule:nonzero}
   ]]>
  </style>
 </defs>
 <g id="Layer_x0020_1">
  <metadata id="CorelCorpID_0Corel-Layer"/>
  <rect class="fil0" width="2048" height="2048" rx="256" ry="256"/>
  <path class="fil1" d="M1565 302c79,42 146,110 186,198 19,42 30,84 36,127 6,42 6,85 4,129 -22,356 -234,548 -461,754 -79,71 -159,144 -234,226 -1,1 -1,2 -2,3l-11 11 0 0c-1,1 -3,3 -5,5 -3,3 -6,7 -11,11l0 0c0,0 -1,1 -1,1 -2,2 -4,4 -5,6 -4,5 -8,9 -13,13l0 0c-8,6 -18,8 -28,5 -10,-3 -19,-12 -27,-20 -2,-3 -5,-5 -6,-6 -1,-1 -1,-1 -2,-2l0 0c-1,-1 -1,-2 -2,-2l0 0c-49,-49 -104,-101 -162,-155 -317,-297 -697,-654 -520,-1090 2,-6 5,-12 8,-18 48,-107 129,-178 222,-213 93,-35 199,-33 297,7 5,2 11,5 17,7 37,17 72,42 104,72 28,27 54,57 75,88 21,-31 50,-61 82,-88 65,-53 144,-94 194,-105 90,-20 183,-5 264,37z"/>
 </g>
</svg>
